<svg xmlns="http://www.w3.org/2000/svg" width="100" height="74.353" viewBox="0 0 100 74.353"><path fill="#fff" d="M98.467 64.234C92.98 67.75 73.362 70.354 50 70.354c-23.363 0-42.98-2.604-48.467-6.12-1-.64-1.533-1.31-1.533-2v4c0 4.484 22.386 8.12 50 8.12 27.613 0 50-3.636 50-8.12v-4c0 .69-.534 1.36-1.533 2z"/><path fill="#fff" d="M87 55.774V9.616h-.01c0-.02.01-.04.01-.06V6.64c0 .502-.68.99-1.407 1.457-.842.54-2.15 1.048-3.845 1.517-6.35 1.758-18.17 2.94-31.603 2.94s-25.388-1.183-31.795-2.94c-1.71-.47-3.028-.98-3.87-1.52-.727-.465-1.48-.953-1.48-1.455v2.914c0 .02.008.04.01.06H13v46.16c-8.077 1.44-13 3.356-13 5.46 0 4.483 22.386 8.118 50 8.118 27.613 0 50-3.635 50-8.12 0-2.103-4.924-4.02-13-5.46zM50 0C29.887 0 13.582 2.647 13.582 5.913c0 1.402 3.01 2.69 8.03 3.703 6.674 1.348 16.908 2.21 28.39 2.21 11.48 0 21.713-.862 28.39-2.21 5.02-1.014 8.028-2.3 8.028-3.703C86.42 2.647 70.112 0 50 0z"/></svg>