<svg xmlns="http://www.w3.org/2000/svg" width="64" height="64" viewBox="0 0 64 64"><path fill="#fff" d="M58.48 34.35L47.694 28.6V16.09l-.054.032.055-.036-11.064-5.9-10.017 5.646-10.587-5.645-10.507 5.92.045.027v12.633l-.046.02.045.028v12.917l10.754 6.486v.01l.006-.004.01.005v-.01l10.754-6.486V29.606l9.834 5.932v.01l.007-.004.01.005v-.012l.017-.01v11.788l10.754 6.486v.01l.008-.004.01.005v-.01l10.754-6.487v-12.96l-.054.03.053-.035zM26.17 28l-9.498-4.116-.002-1.043 9.5-5.704V28zm-4.04 2.98l-5.438 3.152-.018-9.16 8.965 3.89-3.51 2.12zM16.536 11.4l9.2 4.72-9.2 5.56V11.4zm-1 .026v10.11l-8.68-5.23 8.68-4.88zM6.39 17.08l9.12 5.5v1.265l-9.12 4.193V17.08zm1.08 11.563l8.04-3.697v9.14L6.96 28.93l.51-.287zm8.04 18.125l-8.6-5.186 8.6-3.955v9.14zm0-10.242L6.39 40.72V29.762l9.12 5.5v1.264zm1.18 10.288l-.017-9.16 9.05 3.926-9.032 5.234zm9.573-6.09l-9.59-4.158-.003-1.043 9.593-5.76v10.96zm9.85-6.638l-8.6-5.186 8.6-3.955v9.14zm0-10.24l-9.024 4.15v-10.86l9.024 5.443v1.265zm.028-2.31l-8.68-5.23 8.68-4.88v10.11zm1.138 3.438l9.05 3.925-9.032 5.233-.018-9.16zm9.59 3.068l-9.592-4.158-.002-1.043 9.593-5.76v10.962zm-9.727-16.64l9.2 4.72-9.2 5.558V11.4zm9.76 40.95l-8.6-5.187 8.6-3.955v9.14zm0-10.243L37.78 46.3V35.345l9.12 5.5v1.264zm.027-2.31l-8.53-5.14 4.22-2.546 4.31-2.424V39.8zm1-10.134l9.2 4.72-9.2 5.56v-10.28zm.155 22.73l-.018-9.158 9.05 3.925-9.032 5.234zm9.57-6.09l-9.59-4.157-.002-1.044 9.593-5.76v10.96z"/></svg>