<svg xmlns="http://www.w3.org/2000/svg" width="60" height="60" viewBox="0 0 60 60"><path fill-rule="evenodd" clip-rule="evenodd" fill="#DDD" d="M30 60C13.458 60 0 46.542 0 30S13.458 0 30 0s30 13.458 30 30-13.458 30-30 30zm25.3-25.893c-.876-.277-7.93-2.38-15.96-1.096 3.352 9.212 4.716 16.71 4.98 18.27 5.745-3.885 9.838-10.043 10.98-17.173zm-15.29 19.52c-.38-2.248-1.87-10.082-5.467-19.432l-.17.057c-14.452 5.037-19.64 15.06-20.102 16.003 4.346 3.388 9.806 5.41 15.73 5.41 3.55 0 6.934-.727 10.01-2.038zm-29.047-6.454c.58-.994 7.613-12.638 20.828-16.91.335-.107.673-.21 1.012-.304-.644-1.457-1.345-2.914-2.077-4.35C17.927 29.44 5.51 29.28 4.39 29.256c-.01.26-.014.52-.014.783 0 6.58 2.495 12.59 6.587 17.133zm-6.046-22.38c1.146.014 11.703.06 23.69-3.123-4.247-7.548-8.826-13.894-9.5-14.82-7.17 3.38-12.528 9.99-14.19 17.942zM23.995 5.126c.708.948 5.362 7.286 9.562 15 9.112-3.415 12.97-8.6 13.43-9.255C42.462 6.857 36.512 4.415 30 4.415c-2.067 0-4.078.248-6.005.712zm25.84 8.708c-.54.73-4.833 6.235-14.308 10.104.596 1.22 1.168 2.46 1.7 3.71.188.444.372.884.552 1.323 8.524-1.072 16.996.646 17.842.825-.057-6.05-2.22-11.602-5.787-15.963z"/></svg>