<svg xmlns="http://www.w3.org/2000/svg" width="60" height="60" viewBox="0 0 60 60"><path fill="#DD4951" d="M59.417 1.724v-.072c-.003-.047-.005-.093-.01-.138-.007-.03-.015-.058-.02-.086-.02-.116-.053-.228-.098-.337-.006-.014-.01-.032-.016-.048-.002-.007-.004-.014-.008-.02-.006-.01-.014-.02-.018-.03-.062-.128-.134-.25-.225-.36C59.016.62 59 .61 58.988.596 58.96.562 58.926.533 58.894.5c-.01-.01-.015-.025-.025-.036-.01-.007-.02-.008-.024-.015-.043-.04-.09-.075-.137-.11-.02-.013-.03-.03-.05-.043-.02-.014-.042-.02-.06-.032-.036-.02-.063-.045-.1-.064-.058-.03-.116-.048-.175-.07-.025-.012-.05-.025-.074-.034l-.047-.018C58.068.035 57.93.008 57.79 0c-.033-.002-.063 0-.1 0h-.112c-.076.006-.15.017-.228.03-.035.007-.072.013-.108.022-.077.02-.15.046-.224.076-.028.01-.06.02-.086.035-.03.014-.06.023-.09.04l-.015.005-55.342 30.59c-.542.298-.886.864-.902 1.484-.015.62.3 1.202.826 1.528l16.273 10.103 3.334 14.726c.14.61.593 1.1 1.192 1.284.167.053.34.076.51.076.44 0 .868-.165 1.197-.473l8.444-7.918 16.98 8.216c.505.242 1.095.232 1.59-.034.492-.267.83-.752.903-1.308l7.573-56.512c.002-.008 0-.016 0-.023.012-.076.012-.15.01-.226zm-10.57 6.894L18.93 40.573 5.786 32.415l43.06-23.797zM23.75 54.89l-2.617-11.56 28.682-30.636L30.64 48.432l-6.888 6.46zm24.94.737l-14.25-6.895 20.224-37.686-5.975 44.58z"/></svg>