<svg xmlns="http://www.w3.org/2000/svg" width="60" height="60" viewBox="0 0 60 60"><path fill="#DDD" d="M59.417 1.724v-.072c-.003-.047-.005-.093-.01-.138l-.02-.086c-.02-.116-.052-.228-.097-.337-.005-.014-.008-.032-.015-.048-.002-.007-.004-.014-.008-.02-.005-.01-.013-.02-.017-.03-.062-.128-.134-.25-.225-.36C59.015.62 59 .61 58.99.596c-.03-.033-.063-.063-.096-.096-.01-.01-.014-.025-.025-.036-.008-.007-.018-.008-.025-.015-.042-.04-.09-.075-.136-.11-.018-.013-.03-.03-.05-.043-.02-.014-.042-.02-.06-.032-.035-.02-.063-.045-.1-.064-.056-.03-.115-.048-.174-.07-.025-.012-.048-.025-.074-.034l-.048-.018C58.068.035 57.93.008 57.79 0c-.033-.002-.064 0-.098 0h-.113c-.077.006-.152.017-.228.03-.036.007-.072.013-.11.023-.076.02-.15.046-.222.076-.03.01-.06.02-.087.034-.03.014-.06.023-.09.04L56.83.21 1.484 30.796c-.542.3-.886.865-.902 1.485-.015.62.3 1.203.826 1.53l16.273 10.1 3.334 14.726c.14.61.593 1.102 1.192 1.286.167.052.34.076.51.076.44 0 .868-.165 1.197-.472l8.445-7.92 16.98 8.218c.503.242 1.094.232 1.59-.034.49-.267.828-.752.902-1.308l7.573-56.512c.002-.008 0-.016 0-.023.01-.076.01-.15.01-.226zM48.845 8.618L18.93 40.573 5.786 32.415l43.06-23.797zM23.752 54.89l-2.617-11.56 28.68-30.636-19.174 35.738-6.888 6.458zm24.94.737l-14.25-6.894 20.224-37.686-5.975 44.58z"/></svg>