<svg version="1" xmlns="http://www.w3.org/2000/svg" width="266.667" height="266.667" viewBox="0 0 200.000000 200.000000"><path d="M40 59.5V67h3.5c2.4 0 3.7.6 4.5 1.9 1.5 2.9 1.4 61.3-.2 62.9-.7.7-2.7 1.2-4.5 1.2H40v15h36v-15h-9l.1-30.8c0-16.9.2-30.3.5-29.7.5 1.3 20.4 74.5 20.4 75 0 1 15.9.4 16.5-.5.4-.6 5.3-17.8 11-38.3l10.4-37.2v30.7l.1 30.8h-9v15h43v-15h-3.3c-1.8 0-3.8-.5-4.5-1.2-1.6-1.6-1.7-60-.2-62.9.8-1.3 2.1-1.9 4.5-1.9h3.5V52h-44.9l-1.4 5.2c-.9 2.9-4.2 15.1-7.4 27-3.2 12-6 21.8-6.3 21.8-.3 0-3.2-10-6.4-22.3-3.3-12.2-6.5-24.3-7.3-27L84.9 52H40v7.5z" fill="#DDD"/></svg>