<svg xmlns="http://www.w3.org/2000/svg" width="100" height="100" viewBox="5.0 -10.0 100.0 135.0"><path fill="#fff" d="M68.014 75.76V59.18H65.22v-8.166H62.98V46.93h-3.29v-3.65H57.22v-1.814c0-.553-.448-1-1-1h-.382v-3.764h-1.072v-3.176h-.948v-13.86h-.813v-.855c0-.17-.044-.34-.128-.49l-.88-1.565c-.176-.316-.51-.512-.87-.512H51V1c0-.553-.447-1-1-1-.552 0-1 .447-1 1v15.242h-.124c-.36 0-.695.195-.872.512l-.88 1.566c-.083.15-.127.318-.127.49v.855h-.812v13.86h-.95V36.7h-1.07v3.764h-.383c-.552 0-1 .447-1 1v1.814h-2.475v3.65h-3.29v4.084h-2.236v8.166h-2.793v16.58H29.81V100H70.19V75.76h-2.174zm-2 0h-1.41V64h-2v11.76h-.976V64h-2v11.76h-1.41V61.18h7.796v14.58zM53.836 38.7v1.765h-2.93v-18.8h.91v13.86h.947V38.7h1.073zm-4.84-19.63l.466-.828h1.076l.465.828v.596h-2.006v-.596zM46.165 38.7h1.072v-3.175h.95v-13.86h.72v18.8h-2.742V38.7zm-1.382 3.765h10.436v.814H44.782v-.815zm-2.474 2.814h15.385v1.65H42.308v-1.65zm-3.29 3.65h21.964v2.084H39.02V48.93zm-5.03 12.25h7.794v14.58h-1.41V64h-2v11.76h-.975V64h-2v11.76h-1.41V61.18zM42.957 98h-1.6V79h-2v19h-.974V79h-2v19h-.974V79h-2v19h-1.6V77.76h11.147V98zm10.924 0V55.963c0-.553-.447-1-1-1-.552 0-1 .447-1 1V98h-.975V55.963c0-.553-.447-1-1-1-.552 0-1 .447-1 1V98h-.975V55.963c0-.553-.448-1-1-1-.553 0-1 .447-1 1V98h-.975V75.76H43.78V59.18h-1.298v-2.717h-2v2.717H36.78v-6.166h26.438v6.166H59.33v-2.717h-2v2.717h-1.113v16.58h-1.175V98h-1.16zm14.306 0H66.59V79h-2v19h-.975V79h-2v19h-.975V79h-2v19h-1.598V77.76h11.146V98z"/></svg>