<svg xmlns="http://www.w3.org/2000/svg" width="100" height="100" viewBox="5.0 -10.0 100.0 135.0"><path fill="#fff" d="M9.5 35.42h3.24v3.24H9.5zM15.98 32.18H32.18V9.5H9.5V32.18h6.48zm-3.24-6.48V12.74H28.94V28.94H12.74V25.7zM12.74 38.66h3.24v3.24h-3.24zM12.74 54.86v9.72h6.48v-3.24h-3.24V58.1h6.48v-6.48h-3.24v3.24h-3.24v-3.24h3.24v-3.24h-3.24v-3.24H9.5v6.48h3.24M15.98 41.9h3.24v3.24h-3.24z"/><path fill="#fff" d="M22.46 25.7h3.24v-9.72h-9.72v9.72h3.24M19.22 74.3h-3.24v9.72h9.72V74.3h-3.24M22.46 38.66h3.24v3.24h-3.24z"/><path fill="#fff" d="M25.7 67.82H9.5V90.5H32.18V67.82H25.7zm3.24 6.48v12.96H12.74V71.06H28.94v3.24zM28.94 35.42h3.24v3.24h-3.24zM38.66 19.22v-6.48h-3.24v9.72h3.24M35.42 51.62h-3.24v3.24h-3.24v-3.24h3.24v-3.24H25.7v9.72h9.72v-3.24h3.24v-6.48h-3.24M35.42 67.82h6.48v3.24h6.48v-6.48h3.24v3.24h3.24v-6.48h-9.72V58.1H41.9v6.48h-3.24v-3.24H25.7v3.24h9.72M35.42 87.26h3.24v3.24h-3.24zM38.66 9.5h3.24v3.24h-3.24zM41.9 25.7h6.48v-3.24h6.48v-3.24h-9.72v3.24h-6.48v3.24M38.66 77.54h3.24v3.24h-3.24zM38.66 84.02h3.24v3.24h-3.24zM41.9 12.74h3.24v3.24H41.9zM41.9 28.94h3.24v3.24H41.9zM41.9 35.42h3.24v3.24H41.9zM45.14 9.5h3.24v3.24h-3.24zM45.14 38.66h3.24v3.24h-3.24zM45.14 87.26h3.24v3.24h-3.24z"/><path fill="#fff" d="M51.62 35.42v-6.48h-3.24v3.24h-3.24v3.24h3.24M48.38 80.78h3.24v3.24h-3.24zM61.34 19.22h3.24V9.5h-3.24v6.48H58.1V9.5h-3.24v3.24h-3.24v3.24h3.24v3.24h3.24M61.34 22.46h3.24v3.24h-3.24zM61.34 28.94h3.24v3.24h-3.24z"/><path fill="#fff" d="M64.58 58.1v-3.24h-3.24v-3.24H58.1v3.24h-6.48v-9.72h6.48v3.24h3.24v3.24h3.24v-3.24h3.24V41.9h-3.24v3.24h-3.24v-6.48h9.72v-3.24h-9.72v-3.24H58.1V25.7h-3.24v9.72h-3.24v6.48h-3.24v3.24h-3.24V41.9h-6.48V28.94h-3.24V41.9H25.7v3.24h12.96v3.24h9.72v9.72h9.72v3.24h3.24V58.1"/><path fill="#fff" d="M64.58 51.62h3.24v3.24h-3.24zM71.06 51.62v3.24h-3.24v3.24h6.48v-9.72h-6.48v3.24M67.82 67.82h3.24v3.24h-3.24z"/><path fill="#fff" d="M77.54 64.58v-3.24h-9.72V58.1h-3.24v3.24h-3.24v9.72H58.1v3.24H41.9v3.24h3.24v3.24h3.24v-3.24h3.24v3.24h9.72v9.72h3.24v-9.72h6.48v3.24h-3.24v6.48h3.24v-3.24h6.48v-3.24H74.3v-6.48h3.24v3.24h3.24v-3.24h3.24V74.3h-6.48v-3.24h3.24v-3.24h-3.24v-3.24zm-3.24 6.48v3.24h-9.72v-9.72h9.72v6.48zM77.54 15.98H74.3v9.72h9.72v-9.72h-3.24M77.54 54.86h3.24v3.24h-3.24zM77.54 87.26h3.24v3.24h-3.24zM80.78 61.34v6.48h3.24V58.1h-3.24"/><path fill="#fff" d="M80.78 80.78h3.24v3.24h-3.24zM87.26 38.66v-3.24h-9.72v3.24h-6.48v6.48h3.24V41.9h3.24v6.48h3.24V41.9h3.24v3.24h3.24v6.48h3.24V41.9h-3.24"/><path fill="#fff" d="M84.02 54.86v3.24h3.24v3.24h3.24v-6.48h-3.24v-3.24h-3.24M87.26 80.78v9.72h3.24V77.54h-6.48v3.24M87.26 9.5H67.82V32.18H90.5V9.5h-3.24zm0 6.48v12.96H71.06V12.74H87.26v3.24zM87.26 67.82h3.24v3.24h-3.24z"/></svg>