<svg xmlns="http://www.w3.org/2000/svg" width="73.83" height="60" viewBox="0 0 73.83 60"><path fill="#DDD" d="M73.83 7.103c-2.717 1.205-5.636 2.02-8.7 2.385 3.128-1.875 5.53-4.843 6.66-8.38-2.927 1.736-6.168 2.997-9.618 3.676C59.408 1.84 55.472 0 51.115 0 42.75 0 35.968 6.782 35.968 15.146c0 1.187.134 2.343.392 3.452-12.588-.632-23.75-6.662-31.22-15.826-1.304 2.237-2.05 4.84-2.05 7.615 0 5.255 2.673 9.892 6.737 12.608-2.483-.08-4.818-.76-6.86-1.895v.19c0 7.34 5.22 13.46 12.15 14.852-1.272.347-2.61.53-3.992.53-.976 0-1.925-.094-2.85-.27 1.928 6.018 7.52 10.397 14.15 10.52-5.184 4.062-11.715 6.483-18.812 6.483-1.223 0-2.428-.07-3.613-.212C6.704 57.493 14.666 60 23.22 60c27.86 0 43.095-23.08 43.095-43.098 0-.657-.015-1.31-.044-1.96 2.96-2.134 5.53-4.802 7.56-7.84z"/></svg>